<?xml version="1.0" standalone="no"?>
<!DOCTYPE svg PUBLIC "-//W3C//DTD SVG 20010904//EN"
 "http://www.w3.org/TR/2001/REC-SVG-20010904/DTD/svg10.dtd">
<svg version="1.0" xmlns="http://www.w3.org/2000/svg"
 width="800.000000pt" height="600.000000pt" viewBox="0 0 800.000000 600.000000"
 preserveAspectRatio="xMidYMid meet">

<g transform="translate(0.000000,600.000000) scale(0.100000,-0.100000)"
fill="#000000" stroke="none">
<path d="M2530 5413 c0 -16 -2 -16 -11 -3 -9 13 -10 12 -5 -2 3 -9 -1 -30 -9
-46 -8 -15 -22 -75 -31 -132 -14 -86 -15 -119 -6 -185 7 -44 14 -115 17 -158
2 -42 12 -93 20 -113 32 -77 150 -216 225 -265 l25 -17 -29 -31 -30 -31 40 19
c55 27 73 11 39 -33 -14 -18 -25 -41 -25 -50 0 -9 -11 -27 -23 -39 -13 -12
-29 -32 -36 -45 -11 -22 -11 -22 8 -10 12 7 21 16 21 20 0 5 6 8 13 8 8 0 13
-8 12 -17 -6 -52 -19 -100 -34 -117 -15 -18 -15 -18 9 -6 21 11 23 11 13 -1
-6 -8 -14 -32 -18 -54 l-6 -40 24 27 24 26 14 -41 c8 -23 14 -44 15 -47 0 -3
11 -39 24 -80 l24 -75 6 50 5 50 34 -53 c19 -30 40 -52 51 -52 10 0 23 -7 30
-15 21 -25 30 2 13 37 -17 33 -23 82 -12 100 14 22 50 -22 48 -57 -3 -46 0
-65 10 -65 5 0 7 9 4 20 -7 25 22 70 44 70 14 0 14 -3 -3 -22 -17 -19 -17 -21
-1 -15 22 8 22 -9 0 -22 -17 -9 -17 -12 1 -65 11 -31 21 -56 24 -56 18 0 62
38 62 54 0 19 -1 19 -21 -3 -24 -26 -39 -23 -56 10 -11 21 -10 25 6 31 24 8
34 25 21 33 -16 10 -12 28 4 22 23 -9 8 19 -20 38 -18 12 -29 13 -44 5 -17 -9
-20 -6 -26 26 -7 39 6 56 35 47 12 -3 11 0 -3 11 -11 9 -26 16 -33 16 -9 0
-13 14 -13 40 0 42 36 225 50 249 4 7 10 -24 14 -70 6 -75 47 -263 59 -276 3
-2 4 15 1 39 -3 40 -3 40 5 10 5 -18 12 -36 16 -40 5 -4 5 1 2 10 -9 25 -21
118 -15 118 3 0 22 -42 43 -92 21 -51 41 -97 46 -102 4 -4 10 18 14 50 9 70
24 105 26 59 1 -30 1 -30 9 -5 4 14 8 40 9 58 1 18 5 31 10 27 6 -3 8 -29 5
-58 l-4 -52 16 35 c9 19 18 46 20 60 10 58 32 68 52 25 17 -37 15 -42 -17 -48
-19 -4 -32 -15 -41 -37 -7 -17 -9 -34 -5 -38 4 -4 10 -1 13 7 9 26 42 51 67
51 14 0 25 -4 25 -10 0 -5 -9 -10 -20 -10 -40 0 -51 -78 -21 -153 11 -27 13
-28 76 -25 36 1 65 6 65 11 0 28 -35 122 -51 138 -21 21 -24 29 -9 29 18 0 60
-52 60 -74 0 -17 2 -18 10 -6 15 24 12 37 -18 72 -22 26 -27 39 -22 63 4 19
11 29 21 27 11 -3 12 -1 2 9 -7 7 -13 24 -13 39 1 33 12 14 40 -70 26 -75 40
-95 41 -59 0 22 1 22 8 4 7 -18 9 -17 18 10 9 26 11 28 16 10 3 -11 8 -46 12
-77 3 -32 10 -58 14 -58 4 0 16 9 27 21 10 12 26 18 37 15 14 -3 16 -1 8 8
-16 19 -5 98 15 113 25 18 31 17 49 -11 34 -51 12 -166 -39 -201 -11 -8 -32
-15 -47 -15 -17 0 -32 -9 -43 -25 -9 -13 -43 -53 -77 -89 -57 -61 -59 -65 -40
-76 16 -8 20 -8 16 2 -4 13 71 105 79 97 2 -2 11 -28 20 -57 18 -61 12 -67
-49 -60 -19 2 -32 1 -27 -4 10 -10 63 -12 87 -3 11 5 -6 -19 -38 -52 -33 -34
-69 -75 -80 -91 -12 -17 -31 -34 -42 -38 -37 -13 -95 -20 -95 -12 0 4 -11 10
-25 14 -14 3 -29 11 -33 18 -4 6 -20 20 -37 30 -16 10 -27 15 -22 11 4 -5 -3
-20 -15 -34 -19 -21 -20 -23 -3 -11 11 8 6 -1 -11 -20 -18 -19 -37 -46 -44
-58 -6 -13 -27 -30 -45 -38 -19 -7 -36 -17 -38 -21 -5 -9 6 -109 17 -159 5
-23 3 -36 -9 -48 -13 -12 -15 -26 -10 -55 5 -29 1 -49 -13 -78 -10 -21 -22
-50 -26 -65 -3 -15 -20 -38 -36 -50 -17 -12 -30 -30 -30 -40 0 -23 -31 -41
-115 -67 -90 -26 -208 -106 -201 -136 15 -73 36 -129 60 -159 26 -35 26 -36
10 -63 -10 -16 -29 -41 -43 -57 -25 -27 -25 -28 -3 -17 12 7 33 29 47 51 13
21 29 41 35 45 6 3 8 10 5 15 -8 12 11 48 41 80 30 32 85 30 107 -4 15 -23 11
-90 -5 -80 -5 3 -7 -5 -4 -18 3 -12 8 -44 11 -71 6 -47 6 -47 -23 -47 -16 0
-48 7 -71 15 -46 16 -66 12 -75 -13 -3 -9 -9 -23 -12 -29 -4 -9 2 -9 21 1 36
19 62 11 42 -13 -26 -30 -31 -47 -8 -26 18 16 24 17 31 5 9 -15 0 -39 -24 -59
-11 -10 -17 -8 -28 7 -7 10 -23 24 -36 31 -13 7 -22 18 -19 24 2 7 -5 13 -17
14 -11 1 -40 6 -63 11 -50 11 -68 -2 -75 -57 -4 -29 -3 -31 7 -17 8 10 20 14
31 10 14 -4 15 -3 6 4 -11 7 -8 14 13 30 26 20 29 21 59 6 32 -17 156 -132
156 -146 0 -16 -27 -7 -71 22 -24 16 -55 37 -69 46 -18 12 -17 10 5 -10 17
-14 49 -38 73 -52 46 -28 48 -33 30 -53 -11 -11 -9 -11 10 -2 12 7 20 16 17
21 -8 13 76 70 104 70 15 0 49 -13 76 -28 48 -26 50 -29 53 -76 2 -32 -1 -52
-10 -57 -10 -7 -10 -9 0 -9 6 0 12 -12 12 -28 0 -15 14 -50 30 -76 28 -43 30
-51 20 -82 -9 -26 -17 -34 -35 -34 -13 0 -27 5 -31 11 -4 7 -9 8 -13 1 -13
-21 -61 -18 -61 4 0 13 -4 12 -26 -5 -29 -23 -52 -17 -77 20 -10 13 -16 16
-19 8 -3 -8 -13 -10 -30 -6 -38 10 -44 61 -18 161 11 44 18 82 15 84 -3 3 -5
3 -5 -1 0 -3 -23 1 -51 9 -28 9 -53 14 -55 11 -2 -2 15 -10 38 -17 45 -14 65
-26 57 -34 -9 -9 -112 23 -128 39 -15 15 -14 16 2 9 36 -13 15 12 -23 28 -38
16 -40 16 -40 -1 0 -19 -35 -61 -51 -61 -6 0 -16 14 -22 31 -9 23 -16 29 -31
25 -11 -3 -25 -2 -30 3 -14 9 -130 52 -221 82 -38 12 -108 37 -155 56 -47 19
-141 55 -210 80 -69 25 -138 52 -155 60 -16 9 -38 20 -48 25 -135 67 -186 100
-277 178 -58 50 -120 95 -139 101 -44 15 -140 6 -211 -19 -53 -20 -234 -64
-314 -77 -42 -7 -79 -27 -111 -59 -22 -23 -28 -103 -8 -110 8 -3 10 1 7 12 -5
14 -4 14 4 3 6 -8 23 -16 39 -19 52 -7 38 -14 -19 -10 -31 3 -55 1 -52 -4 3
-4 47 -8 97 -8 160 0 488 -28 592 -51 117 -25 197 -49 395 -116 80 -28 280
-94 444 -148 l300 -97 27 33 c23 28 31 32 46 23 10 -6 19 -21 21 -33 l4 -23
23 22 c19 18 27 20 44 11 12 -7 21 -21 21 -32 0 -15 5 -19 19 -14 19 6 45 -12
54 -37 4 -10 7 -11 18 -1 19 19 27 16 43 -16 11 -21 12 -31 3 -40 -13 -13 -44
-15 -52 -2 -3 5 -20 7 -39 4 -27 -4 -36 -1 -49 17 -10 15 -17 18 -22 10 -4 -7
-16 -9 -28 -6 -15 4 -17 2 -8 -7 6 -6 11 -24 11 -40 0 -52 22 -104 67 -158 24
-30 68 -84 98 -121 30 -36 75 -81 100 -99 26 -19 61 -58 81 -90 18 -31 55 -74
81 -95 26 -22 63 -57 83 -79 45 -51 85 -91 138 -136 35 -30 42 -42 42 -72 0
-37 21 -67 46 -67 15 0 28 -25 38 -72 4 -17 11 -25 19 -22 26 10 39 -24 39
-95 -1 -39 -6 -87 -12 -108 -6 -21 -10 -56 -8 -78 3 -35 9 -44 51 -72 46 -31
49 -31 90 -19 50 15 151 78 184 115 13 14 37 50 54 79 34 57 34 84 8 220 -12
62 -2 82 42 82 15 0 31 4 34 10 3 5 7 46 7 90 1 52 5 79 12 77 5 -2 43 -57 83
-123 79 -128 76 -125 155 -112 l36 6 23 -55 c24 -60 28 -155 9 -236 -13 -56
-14 -52 21 -92 37 -41 111 -77 144 -69 27 7 101 91 130 149 12 22 33 61 48 87
44 73 50 159 22 287 -6 28 -4 31 17 31 48 0 57 18 64 122 9 127 1 146 -75 183
-57 27 -59 29 -67 79 l-9 51 -58 11 c-60 12 -92 33 -102 65 -4 11 -17 22 -30
25 -13 3 -30 13 -37 22 -12 14 -8 15 27 9 22 -3 90 -11 150 -17 73 -8 120 -18
141 -31 35 -21 121 -117 179 -199 22 -31 55 -78 74 -105 18 -26 49 -84 68
-129 20 -44 40 -85 45 -91 13 -14 -2 24 -55 137 -35 75 -42 98 -31 102 16 6
44 -3 44 -14 0 -4 7 -11 16 -14 12 -4 15 -2 10 9 -3 8 -1 15 4 15 6 0 10 -5
10 -11 0 -5 4 -8 9 -5 5 3 20 -22 35 -55 20 -47 24 -65 15 -75 -6 -8 -9 -14
-6 -14 3 0 -1 -21 -9 -47 -8 -25 -12 -48 -10 -51 3 -2 11 19 20 46 25 84 116
260 151 291 28 24 40 28 86 26 48 -1 64 -8 144 -62 50 -33 117 -75 150 -93 33
-18 65 -36 70 -40 28 -21 353 -167 459 -206 67 -25 131 -49 144 -54 29 -12 69
-13 76 -1 3 5 -24 16 -60 25 -36 9 -107 32 -157 52 -51 19 -118 45 -150 56
-162 57 57 7 293 -67 135 -42 206 -53 244 -39 25 10 19 24 -11 24 -16 0 -68
11 -118 23 l-90 23 90 12 c50 7 122 14 160 15 66 2 70 3 69 24 -1 22 3 23 85
23 85 1 166 11 178 24 4 3 2 19 -3 34 -8 23 -16 28 -59 32 l-50 5 50 7 c96 13
219 38 228 47 6 6 7 17 3 27 -6 15 -20 16 -117 12 l-111 -5 89 42 c107 50 175
107 167 139 -4 18 8 30 74 74 74 48 92 67 92 93 0 6 -10 8 -22 4 -20 -5 -21
-4 -7 7 18 15 34 52 19 43 -6 -4 -37 -8 -69 -10 -32 -1 -68 -6 -81 -10 -15 -5
-20 -4 -16 4 4 6 15 11 25 11 39 0 161 33 161 43 0 6 12 24 27 39 21 23 24 31
14 41 -10 9 -11 9 -6 -3 9 -24 -34 -58 -70 -55 -44 3 -47 4 -39 16 4 8 -1 9
-16 4 -13 -4 -53 -9 -89 -11 -36 -1 -91 -10 -121 -19 -57 -16 -209 -33 -199
-22 5 7 294 65 319 65 24 -1 142 32 171 48 21 11 29 11 32 1 3 -6 6 -2 6 9 1
23 -24 40 -34 24 -4 -6 -16 -10 -28 -10 -18 0 -19 2 -7 10 13 8 12 10 -3 10
-10 0 -28 -5 -39 -11 -11 -6 -24 -7 -29 -2 -4 4 16 21 46 38 58 31 74 52 28
34 -15 -6 -32 -14 -38 -18 -5 -4 -23 -8 -40 -9 -32 -2 -346 -65 -404 -82 -19
-5 -37 -8 -39 -5 -2 2 16 9 40 16 141 39 291 83 344 100 33 10 78 19 99 19 36
0 37 1 19 14 -10 8 -20 10 -22 5 -2 -5 -10 -9 -18 -9 -9 0 -12 5 -9 10 4 6
-13 10 -45 10 -61 0 -58 15 6 31 24 6 46 14 48 18 6 9 -57 6 -72 -3 -7 -4 -12
-4 -12 1 0 4 25 26 55 48 57 41 63 49 43 61 -7 4 -8 3 -4 -4 8 -13 -4 -15 -28
-6 -9 3 -13 11 -9 18 5 8 2 7 -8 -1 -14 -11 -135 -60 -174 -69 -15 -4 -14 -2
5 10 48 28 -4 28 -75 0 -48 -19 -70 -24 -73 -16 -2 7 -9 9 -14 6 -7 -4 -8 -2
-4 5 4 6 24 20 45 30 20 11 44 28 52 37 11 14 6 13 -21 -4 -128 -83 -488 -237
-508 -218 -3 3 0 6 6 6 6 0 23 5 39 12 15 6 31 11 36 10 4 -1 7 2 7 8 0 5 30
18 68 30 99 30 212 82 212 97 0 7 21 24 48 37 72 38 81 45 54 43 -12 0 -22 -5
-22 -10 0 -4 -4 -6 -9 -3 -12 7 -201 -54 -201 -65 0 -4 -7 -6 -15 -3 -8 4 -15
1 -15 -4 0 -16 -87 -52 -108 -46 -13 5 -14 4 -3 -4 10 -7 5 -13 -23 -22 -20
-6 -44 -9 -53 -6 -14 6 -14 8 3 20 10 8 22 12 27 9 4 -2 6 1 5 8 -2 7 18 25
45 39 26 15 45 29 41 32 -3 4 8 14 25 22 17 9 30 20 29 24 -1 4 15 25 35 46
43 46 39 66 -6 32 -32 -23 -137 -78 -137 -71 0 2 15 12 33 24 23 14 36 32 45
63 20 68 48 93 167 152 61 30 118 63 127 73 32 37 41 91 32 192 -23 252 -3
362 91 518 30 50 58 105 61 122 6 26 2 33 -27 51 -32 20 -44 21 -219 17 -131
-3 -199 -9 -233 -20 -41 -13 -49 -13 -54 -2 -6 16 18 95 55 178 14 31 22 60
19 63 -12 12 -167 -66 -262 -131 -55 -38 -161 -110 -235 -161 -74 -51 -178
-130 -230 -176 -199 -175 -341 -267 -512 -330 -77 -28 -90 -30 -178 -25 -119
7 -261 46 -349 94 -91 51 -206 127 -264 176 l-49 40 26 14 c22 12 26 20 26 58
0 59 13 83 74 131 28 22 52 47 54 55 3 14 -77 80 -123 101 -35 16 -40 45 -16
100 32 75 31 89 -9 114 -19 13 -44 31 -55 41 -10 10 -32 26 -47 35 -22 14 -28
25 -28 53 0 54 -19 59 -199 52 -162 -5 -250 -19 -289 -45 -12 -8 -33 -16 -45
-17 -12 -2 -34 -6 -49 -10 -34 -9 -34 -4 -6 46 26 47 38 49 38 8 0 -42 15 -29
30 28 17 64 27 72 42 37 12 -29 12 -28 18 26 3 39 8 51 14 41 7 -12 12 -7 21
20 14 39 32 43 146 27 62 -8 72 -7 145 22 94 38 293 79 350 73 45 -5 108 20
102 40 -5 19 -401 211 -507 246 -101 33 -171 72 -171 94 0 7 14 21 30 30 22
14 30 26 30 47 0 47 17 78 58 104 33 20 40 32 46 67 9 54 61 107 133 132 28
10 75 36 104 58 29 21 58 39 64 39 7 0 37 -8 68 -18 50 -17 59 -17 89 -4 20 9
68 15 120 16 78 1 90 4 115 27 15 14 40 33 55 42 17 11 31 32 38 56 7 26 18
42 32 47 39 12 113 8 146 -10 35 -18 43 -9 14 17 -30 27 -152 77 -189 77 -51
0 -70 -14 -77 -58 -11 -71 -62 -89 -175 -62 -51 12 -171 82 -171 99 0 22 -65
31 -155 21 -127 -14 -262 -12 -385 5 -188 26 -177 29 -288 -78 -67 -64 -120
-104 -172 -131 -41 -21 -86 -47 -100 -56 -30 -20 -111 -43 -149 -42 -34 1
-177 66 -256 117 -61 39 -265 236 -265 256 0 19 -123 140 -162 160 -36 18 -38
18 -38 2z m870 -1367 c0 -15 -18 -31 -26 -23 -7 7 7 37 17 37 5 0 9 -6 9 -14z
m-443 -18 c-3 -8 -6 -5 -6 6 -1 11 2 17 5 13 3 -3 4 -12 1 -19z m501 0 c46
-51 37 -108 -19 -108 -34 0 -59 23 -59 56 0 24 1 24 24 9 23 -15 25 -15 31 5
4 12 2 27 -4 33 -6 6 -11 15 -11 19 0 15 16 8 38 -14z m232 -273 c0 -8 -4 -15
-10 -15 -5 0 -7 7 -4 15 4 8 8 15 10 15 2 0 4 -7 4 -15z m-255 -307 c-11 -7
-27 -18 -35 -27 -13 -13 -15 -13 -18 4 -5 21 14 35 48 35 24 -1 24 -1 5 -12z
m345 -16 c0 -10 -16 -33 -35 -52 -19 -19 -35 -28 -35 -21 0 7 -4 9 -10 6 -15
-9 -12 1 10 45 16 30 26 40 45 40 17 0 25 -6 25 -18z m-174 -56 c-8 -20 -20
-36 -25 -36 -6 0 -11 -6 -11 -14 0 -8 -4 -18 -10 -21 -24 -15 -7 47 21 80 38
43 46 40 25 -9z m324 18 c0 -7 -14 -21 -31 -30 -66 -34 -89 -22 -50 28 16 19
27 24 50 20 17 -2 31 -10 31 -18z m-483 -30 c-3 -3 -12 -4 -19 -1 -8 3 -5 6 6
6 11 1 17 -2 13 -5z m-33 -78 c-5 -13 -9 -14 -14 -5 -11 16 0 43 12 31 5 -5 6
-17 2 -26z m-4 -181 c7 -9 11 -18 8 -20 -9 -10 -38 7 -38 21 0 18 14 18 30 -1z
m-102 -456 c-2 -6 15 -18 37 -25 40 -15 89 -57 78 -68 -3 -3 -11 -1 -18 4 -8
7 -10 1 -7 -23 2 -17 6 -39 9 -47 4 -8 5 -19 4 -23 0 -4 4 -17 10 -28 9 -19 8
-20 -10 -14 -12 3 -21 2 -21 -3 0 -5 -19 -15 -43 -20 -55 -14 -96 -47 -79 -64
7 -7 12 -15 12 -18 0 -8 -82 -26 -157 -35 -32 -4 -58 -14 -69 -26 -15 -17 -7
-29 10 -12 3 4 15 7 26 8 19 2 19 1 3 -19 -30 -35 -45 -43 -70 -38 -23 4 -23
5 -7 23 17 19 17 19 -22 4 l-39 -16 33 26 c17 15 32 33 32 40 0 8 9 16 20 20
12 4 22 19 26 40 4 25 22 47 63 84 39 33 76 80 115 145 53 90 69 111 64 85z
m-2298 -224 c0 -2 -35 -3 -77 -2 -73 0 -74 1 -23 6 49 5 100 3 100 -4z m-173
-1 c-3 -3 -12 -4 -19 -1 -8 3 -5 6 6 6 11 1 17 -2 13 -5z m268 -4 c4 -6 -9
-10 -32 -9 -38 1 -38 1 -8 9 17 4 31 8 32 9 1 0 5 -3 8 -9z m45 -10 c0 -5 -7
-10 -15 -10 -8 0 -15 5 -15 10 0 6 7 10 15 10 8 0 15 -4 15 -10z m112 -6 c13
-4 34 -8 48 -10 34 -4 100 -21 107 -28 11 -10 -23 -7 -63 7 -22 7 -43 13 -49
13 -41 1 -135 18 -135 24 0 9 59 5 92 -6z m199 -52 c-7 -2 -18 1 -23 6 -8 8
-4 9 13 5 13 -4 18 -8 10 -11z m34 -2 c3 -5 1 -10 -4 -10 -6 0 -11 5 -11 10 0
6 2 10 4 10 3 0 8 -4 11 -10z m270 -91 c5 -5 -5 -4 -23 2 -17 6 -32 13 -32 16
0 7 43 -8 55 -18z m1383 -16 c-2 -10 -9 -17 -14 -16 -5 1 -10 -10 -9 -25 0
-28 -28 -43 -48 -23 -7 7 0 20 24 44 39 39 52 45 47 20z m-263 -53 c3 -5 1
-10 -4 -10 -6 0 -11 5 -11 10 0 6 2 10 4 10 3 0 8 -4 11 -10z m3395 -42 c0 -5
-7 -8 -14 -5 -9 4 -13 1 -10 -6 4 -13 -96 -87 -119 -87 -6 0 -21 -7 -31 -15
-11 -8 -27 -15 -35 -15 -9 0 7 12 34 26 28 15 66 40 86 55 20 16 43 29 50 29
7 0 9 3 6 7 -9 9 13 34 24 27 5 -3 9 -10 9 -16z m-166 6 c24 -9 39 -41 24 -50
-7 -4 -8 -3 -4 4 4 7 2 12 -4 12 -6 0 -13 -6 -16 -13 -3 -8 -10 -14 -17 -14
-7 0 -47 -23 -91 -51 -104 -68 -115 -68 -77 6 43 83 124 129 185 106z m-3954
-24 c8 -5 11 -10 5 -10 -5 0 -17 5 -25 10 -8 5 -10 10 -5 10 6 0 17 -5 25 -10z
m80 -32 c10 -6 7 -7 -10 -2 -14 3 -32 11 -40 16 -10 6 -7 7 10 2 14 -3 32 -11
40 -16z m4058 3 c-7 -11 -21 -22 -33 -25 -15 -4 -13 0 10 19 36 30 39 31 23 6z
m-198 -21 c0 -12 -78 -65 -86 -58 -4 5 73 68 83 68 2 0 3 -4 3 -10z m110 -14
c0 -2 -8 -10 -17 -17 -16 -13 -17 -12 -4 4 13 16 21 21 21 13z m-3735 -37 c14
-6 9 -7 -15 -3 -19 4 -44 11 -55 15 -14 6 -9 7 15 3 19 -4 44 -11 55 -15z
m3807 -14 c-33 -24 -143 -72 -177 -79 -16 -3 15 17 70 44 99 49 152 66 107 35z
m-462 -60 c0 -2 -10 -9 -22 -15 -22 -11 -22 -10 -4 4 21 17 26 19 26 11z m865
-30 c-74 -25 -125 -33 -93 -15 18 11 125 38 148 38 8 0 -16 -11 -55 -23z
m-1026 -30 c-10 -9 -140 -55 -157 -55 -13 1 -9 8 16 30 28 26 40 30 89 30 31
0 54 -2 52 -5z m36 -52 c-34 -19 -121 -43 -150 -42 -17 0 -16 2 5 11 35 14
142 46 160 46 8 1 2 -6 -15 -15z m-1278 -29 c-6 -6 -47 9 -47 17 0 5 11 3 25
-3 14 -6 24 -13 22 -14z m2573 -3 c-8 -5 -33 -11 -55 -14 l-40 -6 40 14 c47
16 79 20 55 6z m-462 -47 c-14 -13 -155 -40 -174 -34 -15 6 -11 9 21 18 69 18
165 28 153 16z m-1288 -91 c0 -27 -4 -43 -8 -36 -8 12 -4 83 4 83 2 0 4 -21 4
-47z m47 -50 c-2 -16 -4 -5 -4 22 0 28 2 40 4 28 2 -13 2 -35 0 -50z m1363 51
c-36 -7 -78 -13 -95 -12 -37 0 88 25 130 25 17 1 1 -5 -35 -13z m427 -90 c-3
-3 -12 -4 -19 -1 -8 3 -5 6 6 6 11 1 17 -2 13 -5z m-54 -11 c-7 -2 -21 -2 -30
0 -10 3 -4 5 12 5 17 0 24 -2 18 -5z m-140 -110 c-7 -2 -19 -2 -25 0 -7 3 -2
5 12 5 14 0 19 -2 13 -5z m-50 -10 c-7 -2 -19 -2 -25 0 -7 3 -2 5 12 5 14 0
19 -2 13 -5z m-2448 -889 c8 3 16 0 19 -7 4 -7 5 -3 3 8 -3 15 1 21 14 21 10
0 17 -3 17 -6 -2 -27 2 -32 19 -19 10 8 2 -5 -17 -28 -26 -34 -40 -43 -64 -43
-34 0 -96 33 -96 51 0 13 39 52 67 68 15 8 18 5 21 -20 2 -21 8 -29 17 -25z
m-115 -1 c0 -10 -4 -14 -8 -8 -4 6 -11 13 -16 18 -5 4 -2 7 7 7 10 0 17 -8 17
-17z"/>
<path d="M4415 540 c-3 -6 1 -7 9 -4 18 7 21 14 7 14 -6 0 -13 -4 -16 -10z"/>
<path d="M5148 5063 c7 -3 16 -2 19 1 4 3 -2 6 -13 5 -11 0 -14 -3 -6 -6z"/>
<path d="M3740 4080 c0 -5 5 -10 11 -10 5 0 7 5 4 10 -3 6 -8 10 -11 10 -2 0
-4 -4 -4 -10z"/>
<path d="M3060 3996 c0 -2 7 -7 16 -10 8 -3 12 -2 9 4 -6 10 -25 14 -25 6z"/>
<path d="M3131 3874 c0 -11 3 -14 6 -6 3 7 2 16 -1 19 -3 4 -6 -2 -5 -13z"/>
<path d="M3500 3872 c0 -6 -17 -23 -37 -37 -21 -14 -32 -25 -25 -25 18 0 78
57 69 66 -4 4 -7 2 -7 -4z"/>
<path d="M3330 3809 c0 -10 68 -16 81 -8 7 4 -9 8 -35 10 -25 2 -46 1 -46 -2z"/>
<path d="M3401 3744 c0 -11 3 -14 6 -6 3 7 2 16 -1 19 -3 4 -6 -2 -5 -13z"/>
<path d="M3487 3730 c3 -11 9 -17 15 -14 5 3 4 12 -3 20 -16 19 -18 18 -12 -6z"/>
<path d="M3440 3654 c-30 -24 -61 -44 -69 -44 -8 0 -11 -3 -7 -7 4 -4 22 1 41
11 41 22 60 12 71 -36 5 -24 2 -35 -12 -45 -11 -8 -14 -16 -8 -22 5 -5 19 4
34 22 14 17 20 28 14 24 -18 -11 -34 58 -21 87 l12 24 12 -26 c8 -15 11 -19 8
-9 -3 10 -5 30 -5 43 0 13 -3 24 -7 23 -5 0 -33 -20 -63 -45z"/>
<path d="M3303 3613 c9 -2 23 -2 30 0 6 3 -1 5 -18 5 -16 0 -22 -2 -12 -5z"/>
<path d="M1900 2396 c0 -2 7 -7 16 -10 8 -3 12 -2 9 4 -6 10 -25 14 -25 6z"/>
<path d="M2752 2360 c-18 -17 -26 -30 -19 -30 13 0 36 21 51 48 11 18 5 15
-32 -18z"/>
<path d="M2030 2335 c14 -8 30 -14 35 -14 6 0 -1 6 -15 14 -14 8 -29 14 -35
14 -5 0 1 -6 15 -14z"/>
<path d="M2120 2300 c8 -5 22 -9 30 -9 10 0 8 3 -5 9 -27 12 -43 12 -25 0z"/>
<path d="M2675 2240 c-3 -6 1 -7 9 -4 18 7 21 14 7 14 -6 0 -13 -4 -16 -10z"/>
<path d="M2470 2178 c47 -16 91 -35 99 -42 11 -9 13 -8 9 4 -4 14 -146 69
-178 69 -8 0 23 -14 70 -31z"/>
<path d="M6540 2120 c-19 -11 -31 -19 -27 -20 11 0 67 29 67 35 0 7 -1 7 -40
-15z"/>
<path d="M2564 1938 c-4 -7 -4 -10 1 -6 4 4 14 3 22 -4 11 -8 12 -7 7 6 -7 19
-20 21 -30 4z"/>
</g>
</svg>
