<?xml version="1.0" standalone="no"?>
<!DOCTYPE svg PUBLIC "-//W3C//DTD SVG 20010904//EN"
 "http://www.w3.org/TR/2001/REC-SVG-20010904/DTD/svg10.dtd">
<svg version="1.0" xmlns="http://www.w3.org/2000/svg"
 width="300.000000pt" height="170.000000pt" viewBox="0 0 300.000000 170.000000"
 preserveAspectRatio="xMidYMid meet">

<g transform="translate(0.000000,170.000000) scale(0.100000,-0.100000)"
fill="#000000" stroke="none">
<path d="M2227 1693 c-3 -4 -10 -35 -17 -68 -29 -142 -90 -254 -234 -432 -122
-150 -204 -244 -212 -242 -10 1 -64 -62 -100 -118 -22 -35 -41 -53 -54 -53
-13 0 -22 -9 -26 -27 -4 -16 -15 -39 -25 -52 -10 -12 -21 -38 -25 -55 -4 -22
-16 -39 -35 -50 -16 -9 -29 -13 -29 -8 0 4 -7 17 -15 28 -15 18 -15 18 -9 -9
4 -17 2 -27 -5 -27 -6 0 -11 5 -11 10 0 6 -4 10 -10 10 -5 0 -9 -3 -9 -7 4
-23 -3 -25 -17 -5 -11 16 -25 22 -55 22 -24 0 -38 4 -34 10 3 6 20 10 37 10
40 0 33 6 -16 13 l-38 6 4 -69 c3 -59 8 -74 34 -107 67 -83 189 -112 267 -64
112 69 148 201 81 303 l-24 37 30 34 c16 19 55 47 85 63 30 16 55 32 55 37 0
10 -18 9 -24 -2 -10 -16 -75 -50 -70 -37 6 15 114 78 114 67 0 -5 12 -17 28
-26 l27 -18 -22 25 c-13 13 -23 28 -23 34 0 5 4 5 8 -1 4 -5 21 -21 37 -35 26
-22 28 -22 11 -2 -11 12 -17 25 -14 27 3 3 36 19 74 35 38 16 64 30 57 30 -6
0 -20 3 -30 6 -15 5 -16 4 -3 -6 12 -9 10 -10 -13 -5 -19 4 -26 2 -22 -5 3 -5
-1 -10 -9 -10 -31 0 -15 17 39 41 30 13 55 27 55 30 0 4 -14 9 -32 13 -17 3
-29 9 -25 12 3 3 21 1 41 -6 28 -9 40 -8 63 4 29 16 15 23 -15 8 -11 -6 -27
-4 -42 4 l-25 14 30 0 c19 0 25 3 18 8 -9 6 5 19 43 43 87 54 95 64 21 25 -56
-29 -72 -34 -94 -25 -14 5 -28 8 -30 5 -3 -2 5 -7 16 -11 12 -3 19 -11 16 -16
-4 -5 -14 -5 -25 1 -29 16 -48 12 -26 -5 19 -14 19 -15 -6 -15 -35 0 -41 12
-20 36 86 94 234 331 265 423 13 39 27 68 30 65 5 -5 -3 78 -8 84 -2 2 -5 0
-8 -5z m-273 -622 c4 -5 -3 -7 -14 -4 -23 6 -26 13 -6 13 8 0 17 -4 20 -9z
m-59 -131 c3 -5 1 -10 -4 -10 -6 0 -11 5 -11 10 0 6 2 10 4 10 3 0 8 -4 11
-10z m-311 -267 c-7 -16 -14 -39 -14 -53 -1 -22 -2 -23 -11 -7 -10 18 -4 52
13 75 19 22 27 12 12 -15z m23 -18 c-7 -13 -14 -20 -15 -14 -2 5 2 16 8 24 18
21 20 18 7 -10z m-217 -75 c0 -12 -21 -17 -47 -12 -29 6 -30 20 0 24 26 5 47
-1 47 -12z"/>
<path d="M290 1273 c0 -5 11 -24 24 -43 13 -19 26 -45 31 -58 4 -13 9 -21 12
-19 2 3 18 -9 35 -25 63 -62 190 -133 430 -242 l28 -12 -32 -30 -32 -29 17 28
c22 34 11 35 -25 0 -36 -34 -45 -26 -12 11 14 15 24 30 21 32 -3 3 -18 -11
-33 -32 l-29 -37 -285 5 c-157 3 -265 2 -240 -3 25 -4 138 -8 251 -8 113 -1
234 -4 268 -7 l62 -7 -23 -24 c-12 -13 -27 -22 -34 -19 -7 3 -20 -1 -29 -8
-13 -9 -3 -11 55 -8 l72 4 -17 -25 c-9 -14 -26 -27 -37 -29 -12 -2 -24 -10
-26 -18 -4 -12 -3 -13 10 -3 8 7 18 10 21 6 4 -3 12 -1 19 4 15 12 84 29 151
38 53 7 52 8 29 -54 -3 -9 -1 -12 6 -8 6 4 13 21 17 37 4 17 11 30 16 30 5 0
4 -11 -1 -26 -16 -42 -10 -42 11 1 15 31 18 34 14 13 -7 -35 2 -36 15 -3 5 14
13 25 17 24 5 -1 15 -1 23 0 13 1 13 2 0 11 -25 16 74 12 112 -4 18 -8 48 -20
66 -26 22 -9 32 -19 32 -34 0 -12 3 -16 8 -10 4 6 16 16 27 22 17 10 18 11 3
12 -24 0 -23 8 5 31 l22 19 -33 -7 c-26 -4 -51 3 -113 32 -43 20 -86 34 -95
31 -8 -3 -12 -2 -9 4 3 5 -3 8 -12 8 -20 -1 -242 76 -373 130 -181 74 -285
147 -391 274 -27 33 -49 55 -49 51z m590 -406 c0 -2 -10 -12 -21 -23 -22 -19
-22 -19 -8 4 12 19 29 30 29 19z m-60 -71 c0 -2 -7 -9 -15 -16 -13 -11 -14
-10 -9 4 5 14 24 23 24 12z m20 -75 c-10 -20 -30 -29 -30 -14 0 10 33 44 37
39 3 -2 0 -14 -7 -25z m50 25 c0 -2 -7 -9 -15 -16 -13 -11 -14 -10 -9 4 5 14
24 23 24 12z m30 0 c0 -2 -7 -9 -15 -16 -13 -11 -14 -10 -9 4 5 14 24 23 24
12z"/>
<path d="M340 1256 c0 -2 8 -10 18 -17 15 -13 16 -12 3 4 -13 16 -21 21 -21
13z"/>
<path d="M2138 1083 c7 -3 16 -2 19 1 4 3 -2 6 -13 5 -11 0 -14 -3 -6 -6z"/>
<path d="M2048 983 c7 -3 16 -2 19 1 4 3 -2 6 -13 5 -11 0 -14 -3 -6 -6z"/>
<path d="M1910 913 c0 -5 9 -18 20 -28 11 -10 20 -14 20 -8 0 5 -9 18 -20 28
-11 10 -20 14 -20 8z"/>
<path d="M1940 916 c0 -2 8 -10 18 -17 15 -13 16 -12 3 4 -13 16 -21 21 -21
13z"/>
<path d="M1825 890 c3 -5 8 -10 11 -10 2 0 4 5 4 10 0 6 -5 10 -11 10 -5 0 -7
-4 -4 -10z"/>
<path d="M1459 805 c-3 -2 -14 -6 -25 -8 -24 -4 -83 -36 -68 -37 6 0 30 6 52
14 37 13 41 13 45 -2 4 -15 5 -15 6 1 1 13 10 17 41 17 31 0 40 -4 40 -17 1
-16 2 -16 16 2 14 18 13 21 -8 27 -28 7 -93 10 -99 3z"/>
<path d="M1511 754 c0 -11 3 -14 6 -6 3 7 2 16 -1 19 -3 4 -6 -2 -5 -13z"/>
<path d="M645 740 c-3 -5 1 -10 9 -10 9 0 16 5 16 10 0 6 -4 10 -9 10 -6 0
-13 -4 -16 -10z"/>
<path d="M1110 731 c0 -4 14 -7 32 -5 45 6 48 14 5 14 -20 0 -37 -4 -37 -9z"/>
<path d="M957 693 c-4 -3 -7 -16 -6 -27 0 -19 1 -19 10 3 10 24 8 36 -4 24z"/>
<path d="M926 664 c-4 -14 -5 -28 -3 -31 3 -2 8 8 11 23 4 14 5 28 3 31 -3 2
-8 -8 -11 -23z"/>
<path d="M901 668 c0 -9 -4 -25 -7 -35 -5 -17 -5 -17 6 0 6 10 9 25 7 35 -4
15 -5 15 -6 0z"/>
</g>
</svg>
